<svg xmlns="http://www.w3.org/2000/svg" width="877" height="395" fill="none"><path fill="#000" d="M576 21.6c14.6-5 31.5-4 41-1.7 36.5 6.4 66.8 34.4 79.2 76.6 6.2 21.1 8.2 96.2 8.3 191.9 0 59.8-.4 70-3 76.2-4 8.7-11.2 13-22.6 13-10 0-21.7-3.1-21.7-14v-88.5c0-48.7-.9-131.5-1.9-139-4.2-31.1-16.1-51.6-36.8-63a49.7 49.7 0 0 0-14.8-6.2c-21.2-1.6-30.5 3.8-42.7 16.3-24.4 25.1-31.6 49.8-78.2 172.7-15 39.6-29.8 78-32.8 85.3a86.1 86.1 0 0 1-4.7 10 25.8 25.8 0 0 1-5 7.2 21.4 21.4 0 0 1-28.6 2.8c-6-4.3-9.1-11.1-30.9-65.8l-24.2-61 5.2-8c2.8-4.4 10.2-13 16.4-19.3 6.2-6.2 12-10.5 12.7-9.6 1.6 1.9 17 39.6 33.8 82l7.3-19.3c35.2-93.5 41.7-110.1 52.6-134.5 6.6-14.7 16.1-33.6 21.3-42 20.4-33.6 42.5-52.5 70.1-62Zm150.4 28.5c23.7-5.5 49.4-2.5 70.9 8.3 19.5 10 35.6 30.2 44.6 49 15.7 32.7 18.4 56.1 18.4 162.9 0 85-.4 89.1-9.6 96.1-2.8 2.1-8.3 3.4-14.6 3.4-11 0-23-3.4-23-14l-.1-87.4c-.1-94.9-1.2-109.5-10-130.4-6.4-15-18.6-30.8-31.6-37.8-9.3-4.9-14.6-7.7-29.4-7.6-14.3 0-16.3 1.7-25 6-1.5-10.2-6.2-25-11.9-37.7 2.7-4 17.6-10 21.3-10.8ZM138 45.8c39.7-8.5 88.8 5 109.8 30.2 10.5 13.5-9 40.6-26.4 29.3-10.2-6.5-13.8-9-37-14.3-42.3-9.7-89 15.6-109.4 57.5A132.5 132.5 0 0 0 64.3 232C80.7 316 172.4 350.3 234 295c13.7-12.3 25.4-28.6 46.3-64.4a691.6 691.6 0 0 1 32.9-51.3l13-17.4-17.8-44.1C300 95.6 291.7 72.6 290.5 69c-3.4-10.2 5.7-17.9 13.8-21 10.4-3 17-2.2 22.6 1.8 5.6 4 6.4 5.6 31 65.9a3375 3375 0 0 0 21.3 51.6l3.8 8.4-5.7 3.1c-15.5 8.7-30.3 28.7-59.8 80.6a563.3 563.3 0 0 1-29.7 47.4 160.2 160.2 0 0 1-81.5 57 181.2 181.2 0 0 1-77.6 1c-29.1-8.1-57.2-26.3-76-49A165 165 0 0 1 17 207.4c-.1-12.3.4-34.7 4.3-48 17.7-61 59.1-101.3 116.7-113.7Z"/></svg>